<?xml version="1.0" encoding="UTF-8"?>
<svg version="1.1" xmlns="http://www.w3.org/2000/svg" width="1024" height="1024">
<path d="M0 0 C337.92 0 675.84 0 1024 0 C1024 337.92 1024 675.84 1024 1024 C686.08 1024 348.16 1024 0 1024 C0 686.08 0 348.16 0 0 Z " fill="#020101" transform="translate(0,0)"/>
<path d="M0 0 C0.06874971 38.83762411 0.12157117 77.675239 0.15319599 116.51291171 C0.15694786 121.10382275 0.16083085 125.69473367 0.16479492 130.28564453 C0.16558185 131.1995663 0.16636878 132.11348807 0.16717956 133.05510443 C0.18021377 147.83002682 0.20385663 162.60491399 0.23145839 177.37981552 C0.25956792 192.5536971 0.27618796 207.7275603 0.28226548 222.90146685 C0.28637044 232.25556693 0.29930952 241.60956745 0.3237494 250.96363688 C0.33967516 257.38847013 0.34438497 263.81325233 0.34050413 270.23810387 C0.33859317 273.93829107 0.34140691 277.63830497 0.35761642 281.33846092 C0.48333699 311.57779808 -2.81104179 337.5230516 -25 360 C-43.13314514 376.96853138 -66.71083583 386.62624078 -91.609375 386.1875 C-104.0763596 385.4980815 -114.97401239 381.92419075 -124 373 C-131.69927064 362.76720868 -133.24656278 352.52818283 -131.60546875 339.984375 C-128.90990827 326.97612185 -121.33007875 316.18093007 -112 307 C-111.08154297 306.08347656 -111.08154297 306.08347656 -110.14453125 305.1484375 C-100.50346764 296.14462969 -89.37832485 290.26083835 -77 286 C-75.72851349 285.43897801 -74.45759028 284.87667577 -73.1875 284.3125 C-58.92566024 278.97189618 -43.38227101 281.1235458 -29 284 C-29.495 192.92 -29.495 192.92 -30 100 C-42.21 105.61 -54.42 111.22 -67 117 C-79.5625 122.5625 -79.5625 122.5625 -85.43359375 125.125 C-92.892788 128.38128609 -100.32517961 131.69735766 -107.75979614 135.00924683 C-119.03708566 140.03115686 -130.31681479 145.04798389 -141.625 150 C-142.56617676 150.41515869 -143.50735352 150.83031738 -144.47705078 151.25805664 C-145.74524658 151.8109436 -145.74524658 151.8109436 -147.0390625 152.375 C-147.76303223 152.69210937 -148.48700195 153.00921875 -149.23291016 153.3359375 C-151 154 -151 154 -153 154 C-152.95336716 155.77833977 -152.95336716 155.77833977 -152.90579224 157.59260559 C-152.6202201 168.84384913 -152.41129502 180.09434461 -152.27462959 191.3484087 C-152.20199792 197.13266996 -152.10373978 202.9139739 -151.94384766 208.6965332 C-151.79010943 214.29247592 -151.7076951 219.88560204 -151.6717186 225.48349571 C-151.64613236 227.60342393 -151.59617224 229.72322265 -151.51977921 231.84192848 C-150.96690149 247.83262568 -154.54541994 256.87998773 -165.14553452 268.86882591 C-168.2615199 272.44975388 -171.11018716 276.23634549 -174 280 C-175.16284836 281.48792884 -176.32677007 282.97502002 -177.4921875 284.4609375 C-182.31872014 290.66724943 -186.94805382 297.01740142 -191.59375 303.359375 C-194.90967554 307.88557542 -198.25899497 312.38594957 -201.625 316.875 C-202.10984863 317.52291504 -202.59469727 318.17083008 -203.09423828 318.83837891 C-204.38967301 320.56394738 -205.69387756 322.28251685 -207 324 C-207.72960937 324.97195313 -208.45921875 325.94390625 -209.2109375 326.9453125 C-209.80132812 327.62335938 -210.39171875 328.30140625 -211 329 C-211.66 329 -212.32 329 -213 329 C-213.40202637 328.19071045 -213.80405273 327.3814209 -214.21826172 326.54760742 C-215.76354254 323.43963105 -217.31084821 320.33267799 -218.859375 317.22631836 C-219.51932259 315.9015053 -220.17854346 314.57632988 -220.83691406 313.25073242 C-225.17124253 304.5253958 -229.62276177 295.87060603 -234.17668152 287.25782776 C-238.33207876 279.39233406 -242.3943013 271.48054665 -246.44293213 263.55969238 C-248.61696772 259.30672393 -250.79483595 255.05571884 -252.97265625 250.8046875 C-253.40523743 249.96019043 -253.8378186 249.11569336 -254.2835083 248.24560547 C-258.04564358 240.9041904 -261.8301987 233.57457214 -265.625 226.25 C-271.49138672 214.92649076 -277.32960873 203.58878124 -283.1583252 192.24584961 C-287.58657951 183.62893372 -292.02164099 175.01571549 -296.4776001 166.41308594 C-296.79175999 165.80656441 -297.10591988 165.20004288 -297.42959976 164.57514191 C-298.29513119 162.90419069 -299.160745 161.23328214 -300.02636719 159.56237793 C-305.53682071 148.91481732 -311.00831219 138.24740759 -316.4765625 127.578125 C-317.40533201 125.76642711 -318.33412419 123.95474084 -319.26293945 122.14306641 C-321.50888693 117.76217782 -323.75453025 113.38113346 -326 109 C-326.07022511 136.34774577 -326.12305419 163.69547794 -326.15543652 191.04329586 C-326.17087492 203.74268046 -326.19190637 216.44200889 -326.22631836 229.14135742 C-326.25631359 240.21607505 -326.27559697 251.29075197 -326.28226548 262.36550909 C-326.28616063 268.22407515 -326.29525119 274.08252481 -326.31719017 279.94105339 C-326.33771554 285.46743295 -326.34380168 290.99364934 -326.33932304 296.5200634 C-326.34014112 298.53669118 -326.3460103 300.55332504 -326.35761642 302.56991959 C-326.94548981 326.47768252 -326.94548981 326.47768252 -317.609375 347.66015625 C-308.63193808 356.5286437 -294.87504274 356.93068335 -283 358 C-283 362.29 -283 366.58 -283 371 C-317.32 371 -351.64 371 -387 371 C-388.26237731 368.47524538 -388.09856404 366.68799534 -388.0625 363.875 C-388.04896484 362.50988281 -388.04896484 362.50988281 -388.03515625 361.1171875 C-388.02355469 360.41851563 -388.01195312 359.71984375 -388 359 C-384.55697762 356.99863724 -381.27777193 356.42498051 -377.375 355.75 C-369.27250868 354.07042107 -362.81053304 351.44290297 -357.5 344.9375 C-349.39788458 329.07085729 -350.84752197 310.60077257 -350.83886719 293.25976562 C-350.83423063 291.0819236 -350.82920486 288.90408237 -350.82382202 286.72624207 C-350.81078296 280.8440955 -350.80427063 274.9619603 -350.79981136 269.07980156 C-350.79686889 265.39860255 -350.79276209 261.71740657 -350.78830719 258.03620911 C-350.77465916 246.4994723 -350.76497745 234.96274252 -350.7611053 223.42599821 C-350.75662089 210.14195476 -350.73904381 196.85801402 -350.7101047 183.57400179 C-350.68846016 173.27892743 -350.67839966 162.98388193 -350.67706418 152.68878508 C-350.67601882 146.55109409 -350.67016741 140.41350002 -350.65224457 134.27583313 C-350.63571425 128.50387335 -350.63363246 122.73208288 -350.64238358 116.9601078 C-350.6431511 114.8498775 -350.63884912 112.73963788 -350.62892532 110.62943077 C-349.91387497 90.91132905 -349.91387497 90.91132905 -357.51171875 73.35546875 C-365.37800646 66.19115947 -377.82091222 64.99794978 -388 64 C-388 60.04 -388 56.08 -388 52 C-355 52 -322 52 -288 52 C-281.07 65.53 -274.14 79.06 -267 93 C-261.73552923 103.1666879 -261.73552923 103.1666879 -256.4609375 113.328125 C-252.41137678 121.12465229 -248.3943858 128.9378909 -244.375 136.75 C-239.62986211 145.97191794 -234.87199499 155.18642192 -230.0625 164.375 C-225.31955018 173.44073342 -220.62159549 182.52929308 -215.93942261 191.62652588 C-215.1628121 193.13543178 -214.38590871 194.64418699 -213.6086731 196.152771 C-209.29919987 204.51911306 -205.03568124 212.90573806 -200.838974 221.32922363 C-197.89396823 227.2322037 -194.8716517 233.09284569 -191.8125 238.9375 C-191.31814453 239.88689453 -190.82378906 240.83628906 -190.31445312 241.81445312 C-188.05930153 246.13162738 -185.77176946 250.42361054 -183.40361023 254.6799469 C-182.953464 255.48927957 -182.50331778 256.29861223 -182.03953075 257.13247013 C-181.69648561 257.74875499 -181.35344046 258.36503984 -181 259 C-180.99853344 258.10878134 -180.99706688 257.21756268 -180.99555588 256.29933739 C-180.95850793 234.61630527 -180.89951991 212.93342971 -180.81609726 191.25052452 C-180.77628405 180.76483274 -180.74390314 170.27921625 -180.72900391 159.79345703 C-180.71599924 150.65430683 -180.68906485 141.51532215 -180.64538693 132.37626517 C-180.62274549 127.53695152 -180.60709093 122.69784223 -180.60811615 117.85847092 C-180.60886118 113.30295663 -180.59097379 108.74789455 -180.55883217 104.19249725 C-180.55031751 102.52120399 -180.54859386 100.8498601 -180.55419731 99.17855453 C-180.56083548 96.89425485 -180.54292334 94.61139474 -180.51898193 92.32723999 C-180.51345118 90.41083238 -180.51345118 90.41083238 -180.50780869 88.45570946 C-179.75054621 83.30243188 -177.35898596 80.23793549 -173.56884766 76.78540039 C-171.06650036 75.04621908 -168.66306144 73.70876953 -165.8984375 72.43359375 C-164.36110962 71.72046021 -164.36110962 71.72046021 -162.79272461 70.99291992 C-161.66487549 70.47963135 -160.53702637 69.96634277 -159.375 69.4375 C-158.15557542 68.87693717 -156.93625941 68.3161381 -155.71704102 67.75512695 C-142.66992647 61.77454331 -129.51987765 56.02150746 -116.38183594 50.24438477 C-104.58361531 45.05215434 -92.8350882 39.76287646 -81.125 34.375 C-71.38228217 29.89354667 -61.62407625 25.47785424 -51.74316406 21.30712891 C-44.07267465 18.06120607 -36.4722399 14.66278789 -28.875 11.25 C-27.95608978 10.83737411 -27.95608978 10.83737411 -27.01861572 10.41641235 C-25.23868741 9.61678527 -23.45918358 8.81621351 -21.6796875 8.015625 C-20.55530273 7.51095703 -19.43091797 7.00628906 -18.27246094 6.48632812 C-16.1168564 5.50726811 -13.96873973 4.51152501 -11.82910156 3.49804688 C-10.85682617 3.03978516 -9.88455078 2.58152344 -8.8828125 2.109375 C-8.03348145 1.70170898 -7.18415039 1.29404297 -6.30908203 0.87402344 C-4 0 -4 0 0 0 Z " fill="#FCFCFD" transform="translate(695,287)"/>
<path d="M0 0 C2.4375 0.8125 2.4375 0.8125 5 2 C6.36687857 6.10063572 5.07044697 7.69951495 3.28808594 11.47998047 C1.08620475 15.78775485 -1.37392054 19.92317376 -3.875 24.0625 C-5.04104266 26.0139179 -6.20638299 27.96575561 -7.37109375 29.91796875 C-7.97034668 30.92005371 -8.56959961 31.92213867 -9.18701172 32.95458984 C-12.13648641 37.90904006 -15.03733415 42.89157623 -17.9375 47.875 C-19.11457015 49.89584101 -20.29165354 51.91667431 -21.46875 53.9375 C-22.05269531 54.94039063 -22.63664063 55.94328125 -23.23828125 56.9765625 C-24.97952417 59.96485966 -26.72361792 62.95147264 -28.46875 65.9375 C-34.47095631 76.21019785 -40.44346998 86.49881856 -46.375 96.8125 C-51.63679225 105.9602095 -56.97871683 115.05634312 -62.375 124.125 C-66.88545155 131.70516027 -71.35410474 139.2983103 -75.63696289 147.00952148 C-78.94554484 152.95097265 -82.37740699 158.81848527 -85.8125 164.6875 C-90.2493495 172.26884934 -94.65330064 179.8666115 -99 187.5 C-99.96988243 189.19540956 -100.93993684 190.89072075 -101.91015625 192.5859375 C-103.54917449 195.45114459 -105.18036815 198.32023051 -106.80029297 201.19628906 C-108.66844705 204.5121778 -110.55200256 207.8189494 -112.4375 211.125 C-113.01693359 212.16333984 -113.59636719 213.20167969 -114.19335938 214.27148438 C-114.74701172 215.23634766 -115.30066406 216.20121094 -115.87109375 217.1953125 C-116.35505615 218.05141113 -116.83901855 218.90750977 -117.33764648 219.78955078 C-119.79199232 223.05312064 -122.48193398 224.73433845 -126.5 225.4375 C-129.92428569 224.83825 -131.44165415 223.33044016 -134 221 C-136.47816457 217.2087888 -138.37863817 213.12497606 -140.375 209.0625 C-140.93316406 207.97775391 -141.49132812 206.89300781 -142.06640625 205.77539062 C-142.84951172 204.20241211 -142.84951172 204.20241211 -143.6484375 202.59765625 C-144.12458496 201.64383057 -144.60073242 200.69000488 -145.09130859 199.70727539 C-146.13507789 196.59756078 -146.01754567 195.08757975 -145 192 C-143.57955422 189.88798365 -142.16203399 187.96423493 -140.5625 186 C-139.63912368 184.83349101 -138.71595179 183.66682019 -137.79296875 182.5 C-137.32294434 181.9121875 -136.85291992 181.324375 -136.36865234 180.71875 C-134.33909394 178.17003592 -132.35770437 175.58525799 -130.375 173 C-129.97434326 172.47921875 -129.57368652 171.9584375 -129.16088867 171.421875 C-123.11592911 163.56239464 -117.11990264 155.66540261 -111.11425781 147.77587891 C-109.02310499 145.03033531 -106.92987364 142.28639002 -104.8359375 139.54296875 C-98.32968285 131.0162775 -91.84655812 122.47489261 -85.43212891 113.87890625 C-81.72726115 108.93075235 -77.93582845 104.05432216 -74.125 99.1875 C-68.69890894 92.25515713 -63.44476256 85.2133543 -58.25048828 78.10620117 C-54.25911057 72.66245184 -50.16632154 67.31078124 -46 62 C-39.41230757 53.59536171 -33.06453036 45.02927164 -26.76318359 36.40869141 C-23.7905387 32.3477506 -20.80030585 28.2997911 -17.8125 24.25 C-11.86158021 16.176491 -5.92648111 8.09146094 0 0 Z " fill="#FBFAFB" transform="translate(639,440)"/>
</svg>
